<svg width="23" height="24" viewBox="0 0 23 24" fill="none" xmlns="http://www.w3.org/2000/svg">
<path d="M0 6C0 2.68629 2.68629 0 6 0H17C20.3137 0 23 2.68629 23 6V18C23 21.3137 20.3137 24 17 24H6C2.68629 24 0 21.3137 0 18V6Z" fill="#793FA3"/>
<path d="M8.93685 16.5484L15.7336 5.37576C15.8743 5.14617 16.0626 5.01227 16.2608 5.0008C16.459 4.98933 16.6525 5.10113 16.8027 5.31387C16.953 5.52662 17.0489 5.82468 17.0713 6.14856C17.0938 6.47243 17.0411 6.79831 16.9238 7.06115L16.8471 7.2062L9.49362 19.294C9.36022 19.5134 9.18336 19.6467 8.99521 19.6699C8.80705 19.693 8.6201 19.6044 8.46833 19.4201L8.38009 19.294L5.22859 14.1135C5.08892 13.8821 5.00747 13.5727 5.00049 13.2469C4.99351 12.9211 5.06152 12.603 5.19094 12.356C5.32037 12.1091 5.50169 11.9514 5.69871 11.9145C5.89574 11.8776 6.09398 11.9642 6.25388 12.157L6.34212 12.2831L8.93685 16.5484Z" fill="white"/>
<path d="M6 2H17V-2H6V2ZM21 6V18H25V6H21ZM17 22H6V26H17V22ZM2 18V6H-2V18H2ZM6 22C3.79086 22 2 20.2091 2 18H-2C-2 22.4183 1.58172 26 6 26V22ZM21 18C21 20.2091 19.2091 22 17 22V26C21.4183 26 25 22.4183 25 18H21ZM17 2C19.2091 2 21 3.79086 21 6H25C25 1.58172 21.4183 -2 17 -2V2ZM6 -2C1.58172 -2 -2 1.58172 -2 6H2C2 3.79086 3.79086 2 6 2V-2Z" fill="#793FA3"/>
</svg>
