<svg width="35" height="43" viewBox="0 0 35 43" fill="none" xmlns="http://www.w3.org/2000/svg">
<path d="M29.2432 10.4447L26.2591 15.2992H21.6647H17.0703L14.0861 10.4447L10.6757 16.0326L21.6655 34.7195L32.6554 16.0326L29.2432 10.4447ZM20.9237 27.5925L16.4102 17.5717L20.9237 21.9171V27.5925ZM22.4373 27.5925V21.9162L26.9508 17.5708L22.4373 27.5925Z" fill="#2D2135"/>
<path d="M22.0751 38.3603C12.475 38.413 4.64857 30.9308 4.59407 21.6494C4.53958 12.368 12.2781 4.79992 21.8774 4.74723C25.5207 4.72683 28.9083 5.79341 31.7131 7.63083L34.3913 4.13787C30.864 1.78289 26.5869 0.401855 21.9758 0.401855C9.89341 0.401855 0.098999 9.87193 0.098999 21.5542C0.098999 33.2365 9.89341 42.7066 21.9758 42.7066C26.3329 42.7066 30.392 41.4751 33.8015 39.3521L31.3764 35.6934C28.6938 37.3634 25.5031 38.3416 22.0751 38.3603Z" fill="#2D2135"/>
</svg>
