<svg aria-hidden="true" style="position: absolute; width: 0; height: 0; overflow: hidden;" version="1.1" xmlns="http://www.w3.org/2000/svg" xmlns:xlink="http://www.w3.org/1999/xlink">
<defs>
<symbol id="chekbox" viewBox="0 0 31 32">
<path  style="fill: var(--color1, #793fa3)" d="M0 8c0-4.418 3.582-8 8-8h14.667c4.418 0 8 3.582 8 8v16c0 4.418-3.582 8-8 8h-14.667c-4.418 0-8-3.582-8-8v-16z"></path>
<path  style="fill: var(--color2, #fff)" d="M11.916 22.065l9.062-14.897c0.188-0.306 0.439-0.485 0.703-0.5s0.522 0.134 0.723 0.417c0.2 0.284 0.328 0.681 0.358 1.113s-0.040 0.866-0.197 1.217l-0.102 0.193-9.805 16.117c-0.178 0.293-0.414 0.47-0.665 0.501s-0.5-0.087-0.703-0.333l-0.118-0.168-4.202-6.907c-0.186-0.309-0.295-0.721-0.304-1.155s0.081-0.859 0.254-1.188c0.173-0.329 0.414-0.539 0.677-0.589s0.527 0.066 0.74 0.323l0.118 0.168 3.46 5.687z"></path>
<path  style="fill: var(--color1, #793fa3)" d="M8 2.667h14.667v-5.333h-14.667v5.333zM28 8v16h5.333v-16h-5.333zM22.667 29.333h-14.667v5.333h14.667v-5.333zM2.667 24v-16h-5.333v16h5.333zM8 29.333c-2.946 0-5.333-2.388-5.333-5.333h-5.333c0 5.891 4.776 10.667 10.667 10.667v-5.333zM28 24c0 2.945-2.388 5.333-5.333 5.333v5.333c5.891 0 10.667-4.776 10.667-10.667h-5.333zM22.667 2.667c2.945 0 5.333 2.388 5.333 5.333h5.333c0-5.891-4.776-10.667-10.667-10.667v5.333zM8-2.667c-5.891 0-10.667 4.776-10.667 10.667h5.333c0-2.946 2.388-5.333 5.333-5.333v-5.333z"></path>
</symbol>
<symbol id="FB" viewBox="0 0 19 32">
<path d="M18.581 0.899c0-0.236-0.089-0.462-0.247-0.628s-0.373-0.26-0.597-0.26h-4.223c-2.126-0.111-4.208 0.667-5.791 2.166s-2.537 3.595-2.655 5.832v4.798h-4.223c-0.224 0-0.439 0.094-0.597 0.26s-0.247 0.393-0.247 0.628v4.621c0 0.236 0.089 0.462 0.247 0.628s0.373 0.26 0.597 0.26h4.223v11.907c0 0.236 0.089 0.462 0.247 0.628s0.373 0.26 0.597 0.26h5.067c0.224 0 0.439-0.094 0.597-0.26s0.247-0.393 0.247-0.628v-11.907h4.426c0.188 0.003 0.371-0.060 0.521-0.179s0.258-0.287 0.306-0.478l1.216-4.621c0.034-0.131 0.038-0.269 0.013-0.402s-0.079-0.259-0.157-0.367c-0.078-0.108-0.179-0.196-0.295-0.257s-0.243-0.093-0.372-0.093h-5.659v-4.798c0.042-0.44 0.238-0.848 0.551-1.143s0.718-0.458 1.138-0.456h4.223c0.224 0 0.439-0.094 0.597-0.26s0.247-0.393 0.247-0.628v-4.621z"></path>
</symbol>
<symbol id="Group" viewBox="0 0 28 32">
<path  style="fill: var(--color2, #fff)" d="M0 0h28.16v30.807h-28.16v-30.807z"></path>
<path  style="fill: var(--color3, #2d2135)" d="M23.788 0l-3.823 6.161h-11.773l-3.823-6.161-4.369 7.092 14.080 23.715 14.080-23.715-4.372-7.092zM13.13 21.762l-5.783-12.717 5.783 5.515v7.203zM15.069 21.762v-7.204l5.783-5.515-5.783 12.718z"></path>
</symbol>
<symbol id="Inst" viewBox="0 0 32 32">
<path d="M15.996 10.664c-2.938 0-5.335 2.398-5.335 5.336s2.398 5.336 5.335 5.336c2.938 0 5.336-2.398 5.336-5.336s-2.398-5.336-5.336-5.336zM31.998 16c0-2.21 0.020-4.399-0.104-6.604-0.124-2.562-0.708-4.835-2.582-6.709-1.877-1.877-4.147-2.458-6.708-2.582-2.209-0.124-4.399-0.104-6.604-0.104-2.209 0-4.399-0.020-6.604 0.104-2.562 0.124-4.835 0.708-6.708 2.582-1.877 1.877-2.458 4.147-2.582 6.709-0.124 2.21-0.104 4.399-0.104 6.604s-0.020 4.399 0.104 6.604c0.124 2.562 0.708 4.835 2.582 6.709 1.877 1.877 4.147 2.458 6.708 2.582 2.209 0.124 4.399 0.104 6.604 0.104 2.209 0 4.399 0.020 6.604-0.104 2.562-0.124 4.835-0.708 6.708-2.582 1.877-1.877 2.458-4.147 2.582-6.709 0.128-2.206 0.104-4.395 0.104-6.604zM15.996 24.21c-4.543 0-8.209-3.666-8.209-8.21s3.666-8.21 8.209-8.21c4.543 0 8.21 3.666 8.21 8.21s-3.666 8.21-8.21 8.21zM24.541 9.372c-1.061 0-1.917-0.857-1.917-1.917s0.857-1.917 1.917-1.917c1.061 0 1.917 0.857 1.917 1.917 0 0.252-0.049 0.501-0.145 0.734s-0.238 0.444-0.416 0.622c-0.178 0.178-0.39 0.319-0.622 0.416s-0.482 0.146-0.734 0.145z"></path>
</symbol>
<symbol id="LOGO" viewBox="0 0 46 32">
<path d="M29.643 9.063l-1.872 3.046h-5.766l-1.872-3.046-2.14 3.506 6.896 11.725 6.896-11.725-2.141-3.506zM24.423 19.823l-2.832-6.288 2.832 2.727v3.561zM25.372 19.823v-3.562l2.832-2.727-2.832 6.288z"></path>
<path d="M25.145 26.579c-6.024 0.033-10.934-4.662-10.968-10.485s4.821-10.572 10.844-10.605c2.286-0.013 4.412 0.656 6.171 1.809l1.68-2.192c-2.213-1.478-4.897-2.344-7.79-2.344-7.581 0-13.727 5.942-13.727 13.272s6.146 13.272 13.727 13.272c2.734 0 5.281-0.773 7.42-2.105l-1.522-2.296c-1.683 1.048-3.685 1.662-5.836 1.673z"></path>
</symbol>
<symbol id="Twit" viewBox="0 0 40 32">
<path d="M39.488 3.783c-1.476 0.656-3.043 1.084-4.649 1.27 1.691-1.011 2.957-2.599 3.563-4.47-1.59 0.94-3.329 1.603-5.142 1.962-0.759-0.805-1.675-1.447-2.692-1.885s-2.114-0.662-3.222-0.66c-1.22-0.001-2.425 0.273-3.525 0.802s-2.064 1.299-2.823 2.253c-0.759 0.954-1.291 2.066-1.558 3.254s-0.261 2.421 0.017 3.606c-3.221-0.161-6.371-0.997-9.247-2.452s-5.413-3.497-7.447-5.993c-1.036 1.778-1.354 3.883-0.888 5.886s1.679 3.755 3.393 4.897c-1.286-0.041-2.545-0.386-3.671-1.007v0.101c-0 1.866 0.647 3.675 1.831 5.119s2.834 2.435 4.668 2.804c-1.195 0.325-2.448 0.373-3.664 0.14 0.519 1.604 1.527 3.008 2.883 4.014s2.993 1.566 4.682 1.601c-1.681 1.317-3.606 2.291-5.664 2.865s-4.21 0.737-6.332 0.48c3.704 2.376 8.017 3.636 12.421 3.631 14.896 0 23.048-12.314 23.048-22.991 0-0.354-0.007-0.699-0.022-1.046 1.587-1.139 2.955-2.554 4.039-4.177l0.002-0.002z"></path>
</symbol>
</defs>
</svg>
